<svg width="47" height="45" viewBox="0 0 47 45" fill="none" xmlns="http://www.w3.org/2000/svg">
<path d="M22.7868 0.912248C23.087 -0.00733542 24.3879 -0.00733757 24.6881 0.912246L29.4896 15.6214C29.6238 16.0327 30.0075 16.3111 30.4402 16.3111H45.9681C46.938 16.3111 47.34 17.553 46.5541 18.1214L33.9997 27.2005C33.6476 27.4552 33.5003 27.9081 33.6351 28.3212L38.4323 43.0174C38.7328 43.9379 37.6803 44.7054 36.8957 44.138L24.3235 35.0459C23.9737 34.793 23.5012 34.793 23.1515 35.0459L10.5792 44.138C9.79462 44.7054 8.74213 43.9379 9.04261 43.0174L13.8398 28.3212C13.9747 27.9081 13.8273 27.4552 13.4752 27.2005L0.920811 18.1214C0.13494 17.553 0.536974 16.3111 1.50682 16.3111H17.0348C17.4675 16.3111 17.8511 16.0327 17.9854 15.6214L22.7868 0.912248Z" fill="#DDDDDD"/>
<path d="M10.3898 44.1842L23.5862 34.7944C23.8463 34.6094 24.0024 34.3113 24.0063 33.9922L24.4162 1.20776C24.4305 0.0585413 22.8123 -0.203386 22.4634 0.891677L17.7723 15.6146C17.6401 16.0294 17.2548 16.3111 16.8195 16.3111H1.37468C0.405957 16.3111 0.00318325 17.5507 0.786897 18.1201L13.2855 27.2009C13.636 27.4555 13.7827 27.9069 13.6488 28.3189L8.85898 43.0604C8.56118 43.9769 9.60458 44.7429 10.3898 44.1842Z" fill="#FDD836"/>
</svg>