<svg width="48" height="45" viewBox="0 0 48 45" fill="none" xmlns="http://www.w3.org/2000/svg">
<path d="M22.9014 0.912248C23.2016 -0.00733542 24.5025 -0.00733757 24.8027 0.912246L29.6041 15.6214C29.7384 16.0327 30.122 16.3111 30.5548 16.3111H46.0827C47.0525 16.3111 47.4546 17.553 46.6687 18.1214L34.1143 27.2005C33.7622 27.4552 33.6148 27.9081 33.7497 28.3212L38.5469 43.0174C38.8474 43.9379 37.7949 44.7054 37.0103 44.138L24.438 35.0459C24.0883 34.793 23.6158 34.793 23.266 35.0459L10.6938 44.138C9.90919 44.7054 8.85669 43.9379 9.15717 43.0174L13.9544 28.3212C14.0892 27.9081 13.9419 27.4552 13.5898 27.2005L1.03537 18.1214C0.249503 17.553 0.651537 16.3111 1.62138 16.3111H17.1493C17.582 16.3111 17.9657 16.0327 18.1 15.6214L22.9014 0.912248Z" fill="#D8D8D8"/>
</svg>