<svg width="47" height="45" viewBox="0 0 47 45" fill="none" xmlns="http://www.w3.org/2000/svg">
<path d="M22.6723 0.912248C22.9725 -0.00733531 24.2734 -0.00733864 24.5735 0.912245L29.375 15.6214C29.5093 16.0327 29.8929 16.3111 30.3256 16.3111H45.8536C46.8234 16.3111 47.2254 17.553 46.4396 18.1214L33.8852 27.2005C33.5331 27.4552 33.3857 27.9081 33.5205 28.3212L38.3178 43.0174C38.6183 43.9379 37.5658 44.7054 36.7811 44.138L24.2089 35.0459C23.8592 34.793 23.3866 34.793 23.0369 35.0459L10.4647 44.138C9.68006 44.7054 8.62757 43.9379 8.92804 43.0174L13.7253 28.3212C13.8601 27.9081 13.7128 27.4552 13.3606 27.2005L0.806248 18.1214C0.0203769 17.553 0.422411 16.3111 1.39225 16.3111H16.9202C17.3529 16.3111 17.7365 16.0327 17.8708 15.6214L22.6723 0.912248Z" fill="#FDD836"/>
</svg>