<svg width="20" height="20" viewBox="0 0 20 20" fill="none" xmlns="http://www.w3.org/2000/svg">
<path fill-rule="evenodd" clip-rule="evenodd" d="M10 20C4.477 20 0 15.523 0 10C0 4.477 4.477 0 10 0C15.523 0 20 4.477 20 10C20 15.523 15.523 20 10 20ZM14.8909 13.477L11.414 10.0001L14.8911 6.52301C14.5019 5.97646 14.0234 5.49859 13.4771 5.10901L10 8.58612L6.52289 5.10901C5.97634 5.4982 5.49847 5.97674 5.10889 6.52301L8.586 10.0001L5.10911 13.477C5.49861 14.0236 5.97649 14.5015 6.52311 14.891L10 11.4141L13.4769 14.891C14.0235 14.5015 14.5014 14.0236 14.8909 13.477Z" fill="#999999"/>
</svg>
