<svg width="60" height="60" viewBox="0 0 60 60" fill="none" xmlns="http://www.w3.org/2000/svg">
<g clip-path="url(#clip0_292_1123)">
<g opacity="0.98">
<path opacity="0.98" d="M30 0C46.557 0 60 13.443 60 30C60 46.557 46.557 60 30 60C13.443 60 0 46.557 0 30C0 13.443 13.443 0 30 0Z" fill="#05C3DE"/>
</g>
<path d="M29.985 15C21.705 15 15 21.72 15 30C15 38.28 21.705 45 29.985 45C38.28 45 45 38.28 45 30C45 21.72 38.28 15 29.985 15ZM30 42C23.37 42 18 36.63 18 30C18 23.37 23.37 18 30 18C36.63 18 42 23.37 42 30C42 36.63 36.63 42 30 42ZM30.75 22.5H28.5V31.5L36.375 36.225L37.5 34.38L30.75 30.375V22.5Z" fill="white"/>
</g>
<defs>
<clipPath id="clip0_292_1123">
<rect width="60" height="60" fill="white"/>
</clipPath>
</defs>
</svg>
